ffmpeg version 4.3.1 Copyright (c) 2000-2020 the FFmpeg developers
  built with gcc 10.2.1 (GCC) 20200726
  configuration: --enable-gpl --enable-version3 --enable-sdl2 --enable-fontconfig --enable-gnutls --enable-iconv --enable-libass --enable-libdav1d --enable-libbluray --enable-libfreetype --enable-libmp3lame --enable-libopencore-amrnb --enable-libopencore-amrwb --enable-libopenjpeg --enable-libopus --enable-libshine --enable-libsnappy --enable-libsoxr --enable-libsrt --enable-libtheora --enable-libtwolame --enable-libvpx --enable-libwavpack --enable-libwebp --enable-libx264 --enable-libx265 --enable-libxml2 --enable-libzimg --enable-lzma --enable-zlib --enable-gmp --enable-libvidstab --enable-libvmaf --enable-libvorbis --enable-libvo-amrwbenc --enable-libmysofa --enable-libspeex --enable-libxvid --enable-libaom --enable-libgsm --disable-w32threads --enable-libmfx --enable-ffnvcodec --enable-cuda-llvm --enable-cuvid --enable-d3d11va --enable-nvenc --enable-nvdec --enable-dxva2 --enable-avisynth --enable-libopenmpt --enable-amf
  libavutil      56. 51.100 / 56. 51.100
  libavcodec     58. 91.100 / 58. 91.100
  libavformat    58. 45.100 / 58. 45.100
  libavdevice    58. 10.100 / 58. 10.100
  libavfilter     7. 85.100 /  7. 85.100
  libswscale      5.  7.100 /  5.  7.100
  libswresample   3.  7.100 /  3.  7.100
  libpostproc    55.  7.100 / 55.  7.100
Input #0, mov,mp4,m4a,3gp,3g2,mj2, from 'C:\xampp\htdocs\videoapi\public\video/original.mp4':
  Metadata:
    major_brand     : isom
    minor_version   : 512
    compatible_brands: isomiso2avc1mp41
    encoder         : Lavf57.83.100
  Duration: 00:00:08.51, start: 0.000000, bitrate: 930 kb/s
    Stream #0:0(eng): Video: h264 (Main) (avc1 / 0x31637661), yuv420p, 1920x1080, 928 kb/s, SAR 1:1 DAR 16:9, 17.50 fps, 30 tbr, 16k tbn, 60 tbc (default)
    Metadata:
      handler_name    : VideoHandler
Stream mapping:
  Stream #0:0 -> #0:0 (h264 (native) -> h264 (libx264))
Press [q] to stop, [?] for help
[swscaler @ 000002041fe2cbc0] Warning: data is not aligned! This can lead to a speed loss
[libx264 @ 000002041eaf0940] using SAR=38/33
[libx264 @ 000002041eaf0940] using cpu capabilities: MMX2 SSE2Fast SSSE3 SSE4.2 AVX FMA3 BMI2 AVX2
[libx264 @ 000002041eaf0940] profile High, level 3.1, 4:2:0, 8-bit
[libx264 @ 000002041eaf0940] 264 - core 161 - H.264/MPEG-4 AVC codec - Copyleft 2003-2020 - http://www.videolan.org/x264.html - options: cabac=1 ref=3 deblock=1:0:0 analyse=0x3:0x113 me=hex subme=7 psy=1 psy_rd=1.00:0.00 mixed_ref=1 me_range=16 chroma_me=1 trellis=1 8x8dct=1 cqm=0 deadzone=21,11 fast_pskip=1 chroma_qp_offset=-2 threads=6 lookahead_threads=1 sliced_threads=0 nr=0 decimate=1 interlaced=0 bluray_compat=0 constrained_intra=0 bframes=3 b_pyramid=2 b_adapt=1 b_bias=0 direct=1 weightb=1 open_gop=0 weightp=2 keyint=250 keyint_min=25 scenecut=40 intra_refresh=0 rc_lookahead=40 rc=crf mbtree=1 crf=23.0 qcomp=0.60 qpmin=0 qpmax=69 qpstep=4 ip_ratio=1.40 aq=1:1.00
Output #0, mp4, to 'C:\xampp\htdocs\videoapi\public\pre/1639398219.mp4':
  Metadata:
    major_brand     : isom
    minor_version   : 512
    compatible_brands: isomiso2avc1mp41
    encoder         : Lavf58.45.100
    Stream #0:0(eng): Video: h264 (libx264) (avc1 / 0x31637661), yuv420p, 1080x720 [SAR 38:33 DAR 19:11], q=-1--1, 25 fps, 12800 tbn, 25 tbc (default)
    Metadata:
      handler_name    : VideoHandler
      encoder         : Lavc58.91.100 libx264
    Side data:
      cpb: bitrate max/min/avg: 0/0/0 buffer size: 0 vbv_delay: N/A
frame=   45 fps=0.0 q=0.0 size=       0kB time=00:00:00.00 bitrate=N/A speed=   0x    frame=   60 fps= 49 q=28.0 size=       0kB time=00:00:00.28 bitrate=   1.4kbits/s speed=0.23x    frame=   67 fps= 39 q=28.0 size=       0kB time=00:00:00.56 bitrate=   0.7kbits/s speed=0.325x    frame=   94 fps= 42 q=28.0 size=       0kB time=00:00:01.64 bitrate=   0.2kbits/s speed=0.73x    frame=  124 fps= 45 q=28.0 size=       0kB time=00:00:02.84 bitrate=   0.1kbits/s speed=1.03x    frame=  149 fps= 40 q=-1.0 Lsize=     116kB time=00:00:05.84 bitrate= 163.1kbits/s speed=1.56x    
video:114kB audio:0kB subtitle:0kB other streams:0kB global headers:0kB muxing overhead: 2.185164%
[libx264 @ 000002041eaf0940] frame I:1     Avg QP:11.13  size:   393
[libx264 @ 000002041eaf0940] frame P:55    Avg QP:17.18  size:  1485
[libx264 @ 000002041eaf0940] frame B:93    Avg QP:20.11  size:   363
[libx264 @ 000002041eaf0940] consecutive B-frames: 12.1% 13.4%  2.0% 72.5%
[libx264 @ 000002041eaf0940] mb I  I16..4: 99.9%  0.0%  0.1%
[libx264 @ 000002041eaf0940] mb P  I16..4:  1.6%  1.8%  0.4%  P16..4:  2.2%  0.9%  0.7%  0.0%  0.0%    skip:92.4%
[libx264 @ 000002041eaf0940] mb B  I16..4:  0.1%  0.0%  0.0%  B16..8:  2.6%  0.5%  0.1%  direct: 0.1%  skip:96.6%  L0:48.5% L1:45.5% BI: 6.1%
[libx264 @ 000002041eaf0940] 8x8 transform intra:31.7% inter:35.4%
[libx264 @ 000002041eaf0940] coded y,uvDC,uvAC intra: 4.9% 10.9% 7.3% inter: 0.4% 0.8% 0.5%
[libx264 @ 000002041eaf0940] i16 v,h,dc,p: 84% 14%  3%  0%
[libx264 @ 000002041eaf0940] i8 v,h,dc,ddl,ddr,vr,hd,vl,hu: 15% 17% 67%  0%  0%  0%  0%  0%  0%
[libx264 @ 000002041eaf0940] i4 v,h,dc,ddl,ddr,vr,hd,vl,hu: 32% 21% 28%  2%  3%  4%  4%  3%  3%
[libx264 @ 000002041eaf0940] i8c dc,h,v,p: 83%  8%  9%  0%
[libx264 @ 000002041eaf0940] Weighted P-Frames: Y:0.0% UV:0.0%
[libx264 @ 000002041eaf0940] ref P L0: 76.7%  5.2% 12.1%  6.0%
[libx264 @ 000002041eaf0940] ref B L0: 78.4% 18.5%  3.0%
[libx264 @ 000002041eaf0940] ref B L1: 95.1%  4.9%
[libx264 @ 000002041eaf0940] kb/s:155.49
